<?xml version="1.0" ?>
<!-- Uploaded to: SVG Repo, www.svgrepo.com, Generator: SVG Repo Mixer Tools -->
<svg fill="#000000" width="800px" height="800px" viewBox="0 0 32 32" xmlns="http://www.w3.org/2000/svg">
<title/>
<g data-name="Layer 2" id="Layer_2">
<path d="M16,30a1,1,0,0,1-1-1V25a1,1,0,0,1,2,0v4A1,1,0,0,1,16,30Z"/>
<path d="M24,26H8a2,2,0,0,1-2-2V23a1,1,0,0,1,2,0v1H24V22a1,1,0,0,1,2,0v2A2,2,0,0,1,24,26Z"/>
<path d="M18,23H14a5,5,0,0,1-5-5V8a5,5,0,0,1,5-5h4a5,5,0,0,1,5,5V18A5,5,0,0,1,18,23ZM14,5a3,3,0,0,0-3,3V18a3,3,0,0,0,3,3h4a3,3,0,0,0,3-3V8a3,3,0,0,0-3-3Z"/>
<path d="M14,9a1,1,0,0,1-1-1V5a1,1,0,0,1,2,0V8A1,1,0,0,1,14,9Z"/>
<path d="M18,9a1,1,0,0,1-1-1V5a1,1,0,0,1,2,0V8A1,1,0,0,1,18,9Z"/>
</g>
</svg>